<?xml version="1.0" encoding="utf-8"?>
<!-- Generator: Adobe Illustrator 19.0.0, SVG Export Plug-In . SVG Version: 6.00 Build 0)  -->
<svg version="1.1" id="Layer_1" xmlns="http://www.w3.org/2000/svg" xmlns:xlink="http://www.w3.org/1999/xlink" x="0px" y="0px"
	 viewBox="-419 291 185 188" style="enable-background:new -419 291 185 188;" xml:space="preserve">
<image style="overflow:visible;enable-background:new    ;" width="640" height="640" xlink:href="../../zAPimages/cyborg-penguin.png"  transform="matrix(6.292143e-02 0 0 6.292143e-02 -417.8488 301.3647)">
</image>
<g>
	
		<image style="overflow:visible;enable-background:new    ;" width="651" height="667" xlink:href="2A42FA2AD714D19B.png"  transform="matrix(6.110280e-02 0 0 6.110280e-02 -417.6029 365.5518)">
	</image>
</g>
<image style="overflow:visible;enable-background:new    ;" width="640" height="640" xlink:href="../../zAPimages/cyborg-penguin.png"  transform="matrix(6.292143e-02 0 0 6.292143e-02 -417.8488 428.3657)">
</image>
<g>
	<path d="M-362.2,314.3h-4l-0.6,1.9h-3.6l4.3-11.5h3.9l4.3,11.5h-3.7L-362.2,314.3z M-363,311.9l-1.3-4.1l-1.3,4.1H-363z"/>
	<path d="M-348.5,316.2h-3v-1.3c-0.4,0.6-0.9,0.9-1.3,1.2c-0.5,0.2-1,0.4-1.7,0.4c-0.9,0-1.6-0.3-2.1-0.8c-0.5-0.5-0.7-1.3-0.7-2.4
		v-5.3h3.2v4.6c0,0.5,0.1,0.9,0.3,1.1c0.2,0.2,0.5,0.3,0.8,0.3c0.4,0,0.7-0.1,0.9-0.4c0.2-0.3,0.4-0.8,0.4-1.6v-4h3.2V316.2z"/>
	<path d="M-340.8,307.9h3v7.8l0,0.4c0,0.5-0.1,1-0.3,1.5c-0.2,0.5-0.5,0.9-0.9,1.1c-0.4,0.3-0.8,0.5-1.4,0.6
		c-0.6,0.1-1.2,0.2-1.9,0.2c-1.7,0-2.8-0.2-3.4-0.8s-0.9-1.2-0.9-2c0-0.1,0-0.2,0-0.4l3.1,0.4c0.1,0.3,0.2,0.5,0.4,0.6
		c0.2,0.2,0.5,0.2,0.9,0.2c0.5,0,0.8-0.1,1-0.4c0.2-0.2,0.3-0.7,0.3-1.3v-1.3c-0.3,0.4-0.6,0.6-0.9,0.8c-0.5,0.3-1,0.4-1.6,0.4
		c-1.1,0-2-0.5-2.7-1.5c-0.5-0.7-0.7-1.6-0.7-2.7c0-1.3,0.3-2.3,0.9-3c0.6-0.7,1.4-1,2.5-1c0.6,0,1.2,0.1,1.6,0.3s0.8,0.6,1.2,1.1
		V307.9z M-343.7,312c0,0.6,0.1,1,0.4,1.3s0.6,0.4,1,0.4c0.4,0,0.7-0.1,1-0.4c0.3-0.3,0.4-0.8,0.4-1.4c0-0.6-0.1-1.1-0.4-1.4
		s-0.6-0.5-1-0.5s-0.7,0.1-1,0.4C-343.6,310.8-343.7,311.3-343.7,312z"/>
	<path d="M-327.1,316.2h-3v-1.3c-0.4,0.6-0.9,0.9-1.3,1.2s-1,0.4-1.7,0.4c-0.9,0-1.6-0.3-2.1-0.8s-0.7-1.3-0.7-2.4v-5.3h3.2v4.6
		c0,0.5,0.1,0.9,0.3,1.1s0.5,0.3,0.8,0.3c0.4,0,0.7-0.1,0.9-0.4c0.2-0.3,0.4-0.8,0.4-1.6v-4h3.2V316.2z"/>
	<path d="M-325.7,313.9l3.2-0.3c0.1,0.4,0.3,0.6,0.5,0.8c0.2,0.2,0.5,0.2,0.9,0.2c0.4,0,0.8-0.1,1-0.3c0.2-0.1,0.3-0.3,0.3-0.5
		c0-0.2-0.1-0.4-0.4-0.5c-0.2-0.1-0.6-0.2-1.4-0.3c-1.1-0.2-1.9-0.4-2.3-0.5c-0.4-0.2-0.8-0.4-1.1-0.8s-0.4-0.8-0.4-1.3
		c0-0.5,0.2-1,0.5-1.4s0.8-0.7,1.3-0.9c0.6-0.2,1.3-0.3,2.2-0.3c1,0,1.7,0.1,2.2,0.2c0.5,0.2,0.9,0.4,1.2,0.7
		c0.3,0.3,0.6,0.7,0.8,1.3l-3,0.3c-0.1-0.3-0.2-0.5-0.4-0.6c-0.2-0.2-0.6-0.2-0.9-0.2c-0.4,0-0.6,0.1-0.8,0.2
		c-0.2,0.1-0.2,0.3-0.2,0.5c0,0.2,0.1,0.4,0.3,0.5c0.2,0.1,0.7,0.2,1.4,0.3c1.1,0.1,1.8,0.3,2.4,0.5s0.9,0.5,1.2,0.9
		s0.4,0.8,0.4,1.3c0,0.5-0.1,0.9-0.4,1.4s-0.7,0.8-1.4,1.1s-1.5,0.4-2.5,0.4c-1.5,0-2.6-0.2-3.2-0.6
		C-325.2,315.3-325.6,314.7-325.7,313.9z"/>
	<path d="M-311.6,304.8v3.2h1.8v2.3h-1.8v2.9c0,0.4,0,0.6,0.1,0.7c0.1,0.2,0.3,0.3,0.5,0.3c0.2,0,0.6-0.1,1-0.2l0.2,2.2
		c-0.8,0.2-1.5,0.3-2.2,0.3c-0.8,0-1.4-0.1-1.8-0.3c-0.4-0.2-0.7-0.5-0.8-0.9s-0.3-1.1-0.3-2v-2.9h-1.2v-2.3h1.2v-1.5L-311.6,304.8z
		"/>
	<path d="M-308.1,304.8h5.9c1.3,0,2.2,0.3,2.9,0.9s1,1.5,1,2.6c0,1.2-0.3,2.1-1,2.7c-0.7,0.7-1.8,1-3.2,1h-1.9v4.2h-3.6V304.8z
		 M-304.6,309.7h0.9c0.7,0,1.2-0.1,1.4-0.4c0.3-0.2,0.4-0.5,0.4-0.9c0-0.4-0.1-0.7-0.4-0.9s-0.7-0.4-1.4-0.4h-1V309.7z"/>
	<path d="M-288,312.9h-6.4c0.1,0.5,0.2,0.9,0.4,1.1c0.3,0.4,0.7,0.5,1.2,0.5c0.3,0,0.6-0.1,0.9-0.2c0.2-0.1,0.4-0.3,0.6-0.5l3.1,0.3
		c-0.5,0.8-1.1,1.4-1.7,1.8s-1.6,0.5-2.9,0.5c-1.1,0-2-0.2-2.6-0.5s-1.2-0.8-1.6-1.5c-0.4-0.7-0.6-1.5-0.6-2.4
		c0-1.3,0.4-2.3,1.2-3.1c0.8-0.8,2-1.2,3.4-1.2c1.2,0,2.1,0.2,2.8,0.5s1.2,0.9,1.6,1.6c0.4,0.7,0.5,1.6,0.5,2.7V312.9z
		 M-291.2,311.4c-0.1-0.6-0.2-1.1-0.5-1.3s-0.6-0.4-1.1-0.4c-0.5,0-0.9,0.2-1.2,0.6c-0.2,0.2-0.3,0.6-0.4,1.1H-291.2z"/>
	<path d="M-286.5,307.9h3v1.4c0.4-0.6,0.9-0.9,1.3-1.2c0.5-0.2,1-0.4,1.7-0.4c0.9,0,1.6,0.3,2.1,0.8s0.7,1.3,0.7,2.4v5.3h-3.2v-4.6
		c0-0.5-0.1-0.9-0.3-1.1c-0.2-0.2-0.5-0.3-0.8-0.3c-0.4,0-0.7,0.1-0.9,0.4c-0.2,0.3-0.4,0.8-0.4,1.6v4h-3.2V307.9z"/>
	<path d="M-270.1,307.9h3v7.8l0,0.4c0,0.5-0.1,1-0.3,1.5c-0.2,0.5-0.5,0.9-0.9,1.1c-0.4,0.3-0.8,0.5-1.4,0.6
		c-0.6,0.1-1.2,0.2-1.9,0.2c-1.7,0-2.8-0.2-3.4-0.8s-0.9-1.2-0.9-2c0-0.1,0-0.2,0-0.4l3.1,0.4c0.1,0.3,0.2,0.5,0.4,0.6
		c0.2,0.2,0.5,0.2,0.9,0.2c0.5,0,0.8-0.1,1-0.4c0.2-0.2,0.3-0.7,0.3-1.3v-1.3c-0.3,0.4-0.6,0.6-0.9,0.8c-0.5,0.3-1,0.4-1.6,0.4
		c-1.1,0-2-0.5-2.7-1.5c-0.5-0.7-0.7-1.6-0.7-2.7c0-1.3,0.3-2.3,0.9-3c0.6-0.7,1.4-1,2.5-1c0.6,0,1.2,0.1,1.6,0.3s0.8,0.6,1.2,1.1
		V307.9z M-273,312c0,0.6,0.1,1,0.4,1.3s0.6,0.4,1,0.4c0.4,0,0.7-0.1,1-0.4c0.3-0.3,0.4-0.8,0.4-1.4c0-0.6-0.1-1.1-0.4-1.4
		s-0.6-0.5-1-0.5s-0.7,0.1-1,0.4C-272.9,310.8-273,311.3-273,312z"/>
	<path d="M-256.4,316.2h-3v-1.3c-0.4,0.6-0.9,0.9-1.3,1.2s-1,0.4-1.7,0.4c-0.9,0-1.6-0.3-2.1-0.8s-0.7-1.3-0.7-2.4v-5.3h3.2v4.6
		c0,0.5,0.1,0.9,0.3,1.1s0.5,0.3,0.8,0.3c0.4,0,0.7-0.1,0.9-0.4c0.2-0.3,0.4-0.8,0.4-1.6v-4h3.2V316.2z"/>
	<path d="M-254.4,304.8h3.2v2.2h-3.2V304.8z M-254.4,307.9h3.2v8.3h-3.2V307.9z"/>
	<path d="M-249.2,307.9h3v1.4c0.4-0.6,0.9-0.9,1.3-1.2c0.5-0.2,1-0.4,1.7-0.4c0.9,0,1.6,0.3,2.1,0.8s0.7,1.3,0.7,2.4v5.3h-3.2v-4.6
		c0-0.5-0.1-0.9-0.3-1.1c-0.2-0.2-0.5-0.3-0.8-0.3c-0.4,0-0.7,0.1-0.9,0.4c-0.2,0.3-0.4,0.8-0.4,1.6v4h-3.2V307.9z"/>
	<path d="M-369.7,335.4v-0.9l1.1-1.1c2.7-2.5,3.9-3.9,3.9-5.4c0-1.1-0.5-2-2.1-2c-0.9,0-1.7,0.5-2.2,0.9l-0.4-1
		c0.7-0.6,1.7-1.1,2.9-1.1c2.2,0,3.2,1.5,3.2,3c0,1.9-1.4,3.5-3.6,5.6l-0.8,0.8v0h4.7v1.2H-369.7z"/>
	<path d="M-354.6,330.1c0,3.5-1.3,5.5-3.6,5.5c-2,0-3.4-1.9-3.4-5.3c0-3.5,1.5-5.4,3.6-5.4C-355.9,324.9-354.6,326.8-354.6,330.1z
		 M-360.3,330.3c0,2.7,0.8,4.2,2.1,4.2c1.4,0,2.1-1.7,2.1-4.3c0-2.6-0.7-4.2-2.1-4.2C-359.4,325.9-360.3,327.5-360.3,330.3z"/>
	<path d="M-350.3,326.3L-350.3,326.3l-1.8,1l-0.3-1.1l2.3-1.2h1.2v10.4h-1.4V326.3z"/>
	<path d="M-338.4,325v0.9l-4.5,9.5h-1.5l4.5-9.2v0h-5.1V325H-338.4z"/>
	<path d="M-333.2,333.7c0.6,0.4,1.5,0.7,2.5,0.7c1.4,0,2.3-0.8,2.3-1.8c0-1-0.6-1.6-2-2.1c-1.8-0.6-2.8-1.5-2.8-3.1
		c0-1.7,1.4-2.9,3.5-2.9c1.1,0,1.9,0.3,2.4,0.5l-0.4,1.1c-0.4-0.2-1.1-0.5-2-0.5c-1.5,0-2,0.9-2,1.6c0,1,0.7,1.5,2.1,2.1
		c1.8,0.7,2.8,1.6,2.8,3.2c0,1.7-1.2,3.1-3.8,3.1c-1,0-2.2-0.3-2.8-0.7L-333.2,333.7z"/>
	<path d="M-324.3,331.8c0,1.9,1.2,2.7,2.7,2.7c1,0,1.6-0.2,2.1-0.4l0.2,1c-0.5,0.2-1.3,0.5-2.6,0.5c-2.4,0-3.8-1.6-3.8-3.9
		s1.4-4.2,3.6-4.2c2.5,0,3.2,2.2,3.2,3.6c0,0.3,0,0.5,0,0.7H-324.3z M-320.2,330.8c0-0.9-0.4-2.3-2-2.3c-1.4,0-2,1.3-2.2,2.3H-320.2
		z"/>
	<path d="M-312.8,335.4l-0.1-1h0c-0.4,0.6-1.3,1.2-2.4,1.2c-1.6,0-2.4-1.1-2.4-2.2c0-1.9,1.7-2.9,4.7-2.9v-0.2
		c0-0.6-0.2-1.8-1.8-1.8c-0.7,0-1.5,0.2-2,0.6l-0.3-0.9c0.6-0.4,1.6-0.7,2.5-0.7c2.4,0,2.9,1.6,2.9,3.2v2.9c0,0.7,0,1.3,0.1,1.9
		H-312.8z M-313,331.5c-1.5,0-3.3,0.2-3.3,1.7c0,0.9,0.6,1.3,1.3,1.3c1,0,1.6-0.6,1.9-1.3c0-0.1,0.1-0.3,0.1-0.4V331.5z"/>
	<path d="M-309.5,334c0.4,0.3,1.2,0.6,1.9,0.6c1,0,1.5-0.5,1.5-1.2c0-0.7-0.4-1-1.4-1.4c-1.4-0.5-2-1.3-2-2.2c0-1.2,1-2.3,2.7-2.3
		c0.8,0,1.5,0.2,1.9,0.5l-0.4,1c-0.3-0.2-0.9-0.4-1.6-0.4c-0.8,0-1.3,0.5-1.3,1.1c0,0.6,0.5,0.9,1.5,1.3c1.3,0.5,2,1.2,2,2.3
		c0,1.4-1.1,2.3-2.9,2.3c-0.8,0-1.6-0.2-2.2-0.5L-309.5,334z"/>
	<path d="M-296,331.5c0,2.9-2,4.1-3.9,4.1c-2.1,0-3.7-1.5-3.7-4c0-2.6,1.7-4.1,3.8-4.1C-297.5,327.5-296,329.1-296,331.5z
		 M-302.1,331.6c0,1.7,1,3,2.4,3c1.3,0,2.4-1.3,2.4-3c0-1.3-0.7-3-2.3-3C-301.4,328.6-302.1,330.1-302.1,331.6z"/>
	<path d="M-294.2,329.8c0-0.8,0-1.5-0.1-2.1h1.2l0.1,1.3h0c0.4-0.7,1.3-1.5,2.6-1.5c1.1,0,2.7,0.6,2.7,3.3v4.6h-1.4V331
		c0-1.2-0.5-2.3-1.8-2.3c-0.9,0-1.6,0.7-1.9,1.4c-0.1,0.2-0.1,0.4-0.1,0.7v4.7h-1.4V329.8z"/>
</g>
<g>
	<path d="M-362.2,379.9h-4l-0.6,1.9h-3.6l4.3-11.5h3.9l4.3,11.5h-3.7L-362.2,379.9z M-363,377.4l-1.3-4.1l-1.3,4.1H-363z"/>
	<path d="M-348.5,381.8h-3v-1.3c-0.4,0.6-0.9,0.9-1.3,1.2c-0.5,0.2-1,0.4-1.7,0.4c-0.9,0-1.6-0.3-2.1-0.8c-0.5-0.5-0.7-1.3-0.7-2.4
		v-5.3h3.2v4.6c0,0.5,0.1,0.9,0.3,1.1c0.2,0.2,0.5,0.3,0.8,0.3c0.4,0,0.7-0.1,0.9-0.4c0.2-0.3,0.4-0.8,0.4-1.6v-4h3.2V381.8z"/>
	<path d="M-340.8,373.5h3v7.8l0,0.4c0,0.5-0.1,1-0.3,1.5c-0.2,0.5-0.5,0.9-0.9,1.1c-0.4,0.3-0.8,0.5-1.4,0.6
		c-0.6,0.1-1.2,0.2-1.9,0.2c-1.7,0-2.8-0.2-3.4-0.8s-0.9-1.2-0.9-2c0-0.1,0-0.2,0-0.4l3.1,0.4c0.1,0.3,0.2,0.5,0.4,0.6
		c0.2,0.2,0.5,0.2,0.9,0.2c0.5,0,0.8-0.1,1-0.4c0.2-0.2,0.3-0.7,0.3-1.3v-1.3c-0.3,0.4-0.6,0.6-0.9,0.8c-0.5,0.3-1,0.4-1.6,0.4
		c-1.1,0-2-0.5-2.7-1.5c-0.5-0.7-0.7-1.6-0.7-2.7c0-1.3,0.3-2.3,0.9-3c0.6-0.7,1.4-1,2.5-1c0.6,0,1.2,0.1,1.6,0.3s0.8,0.6,1.2,1.1
		V373.5z M-343.7,377.5c0,0.6,0.1,1,0.4,1.3s0.6,0.4,1,0.4c0.4,0,0.7-0.1,1-0.4c0.3-0.3,0.4-0.8,0.4-1.4c0-0.6-0.1-1.1-0.4-1.4
		s-0.6-0.5-1-0.5s-0.7,0.1-1,0.4C-343.6,376.3-343.7,376.8-343.7,377.5z"/>
	<path d="M-327.1,381.8h-3v-1.3c-0.4,0.6-0.9,0.9-1.3,1.2s-1,0.4-1.7,0.4c-0.9,0-1.6-0.3-2.1-0.8s-0.7-1.3-0.7-2.4v-5.3h3.2v4.6
		c0,0.5,0.1,0.9,0.3,1.1s0.5,0.3,0.8,0.3c0.4,0,0.7-0.1,0.9-0.4c0.2-0.3,0.4-0.8,0.4-1.6v-4h3.2V381.8z"/>
	<path d="M-325.7,379.5l3.2-0.3c0.1,0.4,0.3,0.6,0.5,0.8c0.2,0.2,0.5,0.2,0.9,0.2c0.4,0,0.8-0.1,1-0.3c0.2-0.1,0.3-0.3,0.3-0.5
		c0-0.2-0.1-0.4-0.4-0.5c-0.2-0.1-0.6-0.2-1.4-0.3c-1.1-0.2-1.9-0.4-2.3-0.5c-0.4-0.2-0.8-0.4-1.1-0.8s-0.4-0.8-0.4-1.3
		c0-0.5,0.2-1,0.5-1.4s0.8-0.7,1.3-0.9c0.6-0.2,1.3-0.3,2.2-0.3c1,0,1.7,0.1,2.2,0.2c0.5,0.2,0.9,0.4,1.2,0.7
		c0.3,0.3,0.6,0.7,0.8,1.3l-3,0.3c-0.1-0.3-0.2-0.5-0.4-0.6c-0.2-0.2-0.6-0.2-0.9-0.2c-0.4,0-0.6,0.1-0.8,0.2
		c-0.2,0.1-0.2,0.3-0.2,0.5c0,0.2,0.1,0.4,0.3,0.5c0.2,0.1,0.7,0.2,1.4,0.3c1.1,0.1,1.8,0.3,2.4,0.5s0.9,0.5,1.2,0.9
		s0.4,0.8,0.4,1.3c0,0.5-0.1,0.9-0.4,1.4s-0.7,0.8-1.4,1.1s-1.5,0.4-2.5,0.4c-1.5,0-2.6-0.2-3.2-0.6
		C-325.2,380.9-325.6,380.2-325.7,379.5z"/>
	<path d="M-311.6,370.3v3.2h1.8v2.3h-1.8v2.9c0,0.4,0,0.6,0.1,0.7c0.1,0.2,0.3,0.3,0.5,0.3c0.2,0,0.6-0.1,1-0.2l0.2,2.2
		c-0.8,0.2-1.5,0.3-2.2,0.3c-0.8,0-1.4-0.1-1.8-0.3c-0.4-0.2-0.7-0.5-0.8-0.9s-0.3-1.1-0.3-2v-2.9h-1.2v-2.3h1.2v-1.5L-311.6,370.3z
		"/>
	<path d="M-308.1,370.3h5.9c1.3,0,2.2,0.3,2.9,0.9s1,1.5,1,2.6c0,1.2-0.3,2.1-1,2.7c-0.7,0.7-1.8,1-3.2,1h-1.9v4.2h-3.6V370.3z
		 M-304.6,375.2h0.9c0.7,0,1.2-0.1,1.4-0.4c0.3-0.2,0.4-0.5,0.4-0.9c0-0.4-0.1-0.7-0.4-0.9s-0.7-0.4-1.4-0.4h-1V375.2z"/>
	<path d="M-288,378.4h-6.4c0.1,0.5,0.2,0.9,0.4,1.1c0.3,0.4,0.7,0.5,1.2,0.5c0.3,0,0.6-0.1,0.9-0.2c0.2-0.1,0.4-0.3,0.6-0.5l3.1,0.3
		c-0.5,0.8-1.1,1.4-1.7,1.8s-1.6,0.5-2.9,0.5c-1.1,0-2-0.2-2.6-0.5s-1.2-0.8-1.6-1.5c-0.4-0.7-0.6-1.5-0.6-2.4
		c0-1.3,0.4-2.3,1.2-3.1c0.8-0.8,2-1.2,3.4-1.2c1.2,0,2.1,0.2,2.8,0.5s1.2,0.9,1.6,1.6c0.4,0.7,0.5,1.6,0.5,2.7V378.4z
		 M-291.2,376.9c-0.1-0.6-0.2-1.1-0.5-1.3s-0.6-0.4-1.1-0.4c-0.5,0-0.9,0.2-1.2,0.6c-0.2,0.2-0.3,0.6-0.4,1.1H-291.2z"/>
	<path d="M-286.5,373.5h3v1.4c0.4-0.6,0.9-0.9,1.3-1.2c0.5-0.2,1-0.4,1.7-0.4c0.9,0,1.6,0.3,2.1,0.8s0.7,1.3,0.7,2.4v5.3h-3.2v-4.6
		c0-0.5-0.1-0.9-0.3-1.1c-0.2-0.2-0.5-0.3-0.8-0.3c-0.4,0-0.7,0.1-0.9,0.4c-0.2,0.3-0.4,0.8-0.4,1.6v4h-3.2V373.5z"/>
	<path d="M-270.1,373.5h3v7.8l0,0.4c0,0.5-0.1,1-0.3,1.5c-0.2,0.5-0.5,0.9-0.9,1.1c-0.4,0.3-0.8,0.5-1.4,0.6
		c-0.6,0.1-1.2,0.2-1.9,0.2c-1.7,0-2.8-0.2-3.4-0.8s-0.9-1.2-0.9-2c0-0.1,0-0.2,0-0.4l3.1,0.4c0.1,0.3,0.2,0.5,0.4,0.6
		c0.2,0.2,0.5,0.2,0.9,0.2c0.5,0,0.8-0.1,1-0.4c0.2-0.2,0.3-0.7,0.3-1.3v-1.3c-0.3,0.4-0.6,0.6-0.9,0.8c-0.5,0.3-1,0.4-1.6,0.4
		c-1.1,0-2-0.5-2.7-1.5c-0.5-0.7-0.7-1.6-0.7-2.7c0-1.3,0.3-2.3,0.9-3c0.6-0.7,1.4-1,2.5-1c0.6,0,1.2,0.1,1.6,0.3s0.8,0.6,1.2,1.1
		V373.5z M-273,377.5c0,0.6,0.1,1,0.4,1.3s0.6,0.4,1,0.4c0.4,0,0.7-0.1,1-0.4c0.3-0.3,0.4-0.8,0.4-1.4c0-0.6-0.1-1.1-0.4-1.4
		s-0.6-0.5-1-0.5s-0.7,0.1-1,0.4C-272.9,376.3-273,376.8-273,377.5z"/>
	<path d="M-256.4,381.8h-3v-1.3c-0.4,0.6-0.9,0.9-1.3,1.2s-1,0.4-1.7,0.4c-0.9,0-1.6-0.3-2.1-0.8s-0.7-1.3-0.7-2.4v-5.3h3.2v4.6
		c0,0.5,0.1,0.9,0.3,1.1s0.5,0.3,0.8,0.3c0.4,0,0.7-0.1,0.9-0.4c0.2-0.3,0.4-0.8,0.4-1.6v-4h3.2V381.8z"/>
	<path d="M-254.4,370.3h3.2v2.2h-3.2V370.3z M-254.4,373.5h3.2v8.3h-3.2V373.5z"/>
	<path d="M-249.2,373.5h3v1.4c0.4-0.6,0.9-0.9,1.3-1.2c0.5-0.2,1-0.4,1.7-0.4c0.9,0,1.6,0.3,2.1,0.8s0.7,1.3,0.7,2.4v5.3h-3.2v-4.6
		c0-0.5-0.1-0.9-0.3-1.1c-0.2-0.2-0.5-0.3-0.8-0.3c-0.4,0-0.7,0.1-0.9,0.4c-0.2,0.3-0.4,0.8-0.4,1.6v4h-3.2V373.5z"/>
	<path d="M-369.7,401v-0.9l1.1-1.1c2.7-2.5,3.9-3.9,3.9-5.4c0-1.1-0.5-2-2.1-2c-0.9,0-1.7,0.5-2.2,0.9l-0.4-1
		c0.7-0.6,1.7-1.1,2.9-1.1c2.2,0,3.2,1.5,3.2,3c0,1.9-1.4,3.5-3.6,5.6l-0.8,0.8v0h4.7v1.2H-369.7z"/>
	<path d="M-354.6,395.6c0,3.5-1.3,5.5-3.6,5.5c-2,0-3.4-1.9-3.4-5.3c0-3.5,1.5-5.4,3.6-5.4C-355.9,390.4-354.6,392.3-354.6,395.6z
		 M-360.3,395.8c0,2.7,0.8,4.2,2.1,4.2c1.4,0,2.1-1.7,2.1-4.3c0-2.6-0.7-4.2-2.1-4.2C-359.4,391.5-360.3,393-360.3,395.8z"/>
	<path d="M-350.3,391.9L-350.3,391.9l-1.8,1l-0.3-1.1l2.3-1.2h1.2V401h-1.4V391.9z"/>
	<path d="M-338.4,390.6v0.9l-4.5,9.5h-1.5l4.5-9.2v0h-5.1v-1.2H-338.4z"/>
	<path d="M-333.2,399.3c0.6,0.4,1.5,0.7,2.5,0.7c1.4,0,2.3-0.8,2.3-1.8c0-1-0.6-1.6-2-2.1c-1.8-0.6-2.8-1.5-2.8-3.1
		c0-1.7,1.4-2.9,3.5-2.9c1.1,0,1.9,0.3,2.4,0.5l-0.4,1.1c-0.4-0.2-1.1-0.5-2-0.5c-1.5,0-2,0.9-2,1.6c0,1,0.7,1.5,2.1,2.1
		c1.8,0.7,2.8,1.6,2.8,3.2c0,1.7-1.2,3.1-3.8,3.1c-1,0-2.2-0.3-2.8-0.7L-333.2,399.3z"/>
	<path d="M-324.3,397.3c0,1.9,1.2,2.7,2.7,2.7c1,0,1.6-0.2,2.1-0.4l0.2,1c-0.5,0.2-1.3,0.5-2.6,0.5c-2.4,0-3.8-1.6-3.8-3.9
		s1.4-4.2,3.6-4.2c2.5,0,3.2,2.2,3.2,3.6c0,0.3,0,0.5,0,0.7H-324.3z M-320.2,396.3c0-0.9-0.4-2.3-2-2.3c-1.4,0-2,1.3-2.2,2.3H-320.2
		z"/>
	<path d="M-312.8,401l-0.1-1h0c-0.4,0.6-1.3,1.2-2.4,1.2c-1.6,0-2.4-1.1-2.4-2.2c0-1.9,1.7-2.9,4.7-2.9v-0.2c0-0.6-0.2-1.8-1.8-1.8
		c-0.7,0-1.5,0.2-2,0.6l-0.3-0.9c0.6-0.4,1.6-0.7,2.5-0.7c2.4,0,2.9,1.6,2.9,3.2v2.9c0,0.7,0,1.3,0.1,1.9H-312.8z M-313,397
		c-1.5,0-3.3,0.2-3.3,1.7c0,0.9,0.6,1.3,1.3,1.3c1,0,1.6-0.6,1.9-1.3c0-0.1,0.1-0.3,0.1-0.4V397z"/>
	<path d="M-309.5,399.5c0.4,0.3,1.2,0.6,1.9,0.6c1,0,1.5-0.5,1.5-1.2c0-0.7-0.4-1-1.4-1.4c-1.4-0.5-2-1.3-2-2.2c0-1.2,1-2.3,2.7-2.3
		c0.8,0,1.5,0.2,1.9,0.5l-0.4,1c-0.3-0.2-0.9-0.4-1.6-0.4c-0.8,0-1.3,0.5-1.3,1.1c0,0.6,0.5,0.9,1.5,1.3c1.3,0.5,2,1.2,2,2.3
		c0,1.4-1.1,2.3-2.9,2.3c-0.8,0-1.6-0.2-2.2-0.5L-309.5,399.5z"/>
	<path d="M-296,397c0,2.9-2,4.1-3.9,4.1c-2.1,0-3.7-1.5-3.7-4c0-2.6,1.7-4.1,3.8-4.1C-297.5,393-296,394.7-296,397z M-302.1,397.1
		c0,1.7,1,3,2.4,3c1.3,0,2.4-1.3,2.4-3c0-1.3-0.7-3-2.3-3C-301.4,394.1-302.1,395.6-302.1,397.1z"/>
	<path d="M-294.2,395.3c0-0.8,0-1.5-0.1-2.1h1.2l0.1,1.3h0c0.4-0.7,1.3-1.5,2.6-1.5c1.1,0,2.7,0.6,2.7,3.3v4.6h-1.4v-4.5
		c0-1.2-0.5-2.3-1.8-2.3c-0.9,0-1.6,0.7-1.9,1.4c-0.1,0.2-0.1,0.4-0.1,0.7v4.7h-1.4V395.3z"/>
</g>
<g>
	<path d="M-362.2,441.9h-4l-0.6,1.9h-3.6l4.3-11.5h3.9l4.3,11.5h-3.7L-362.2,441.9z M-363,439.4l-1.3-4.1l-1.3,4.1H-363z"/>
	<path d="M-348.5,443.8h-3v-1.3c-0.4,0.6-0.9,0.9-1.3,1.2c-0.5,0.2-1,0.4-1.7,0.4c-0.9,0-1.6-0.3-2.1-0.8c-0.5-0.5-0.7-1.3-0.7-2.4
		v-5.3h3.2v4.6c0,0.5,0.1,0.9,0.3,1.1c0.2,0.2,0.5,0.3,0.8,0.3c0.4,0,0.7-0.1,0.9-0.4s0.4-0.8,0.4-1.6v-4h3.2V443.8z"/>
	<path d="M-340.8,435.5h3v7.8l0,0.4c0,0.5-0.1,1-0.3,1.5c-0.2,0.5-0.5,0.9-0.9,1.1c-0.4,0.3-0.8,0.5-1.4,0.6
		c-0.6,0.1-1.2,0.2-1.9,0.2c-1.7,0-2.8-0.2-3.4-0.8s-0.9-1.2-0.9-2c0-0.1,0-0.2,0-0.4l3.1,0.4c0.1,0.3,0.2,0.5,0.4,0.6
		c0.2,0.2,0.5,0.2,0.9,0.2c0.5,0,0.8-0.1,1-0.4c0.2-0.2,0.3-0.7,0.3-1.3v-1.3c-0.3,0.4-0.6,0.6-0.9,0.8c-0.5,0.3-1,0.4-1.6,0.4
		c-1.1,0-2-0.5-2.7-1.5c-0.5-0.7-0.7-1.6-0.7-2.7c0-1.3,0.3-2.3,0.9-3s1.4-1,2.5-1c0.6,0,1.2,0.1,1.6,0.3s0.8,0.6,1.2,1.1V435.5z
		 M-343.7,439.5c0,0.6,0.1,1,0.4,1.3s0.6,0.4,1,0.4c0.4,0,0.7-0.1,1-0.4s0.4-0.8,0.4-1.4s-0.1-1.1-0.4-1.4s-0.6-0.5-1-0.5
		s-0.7,0.1-1,0.4S-343.7,438.8-343.7,439.5z"/>
	<path d="M-327.1,443.8h-3v-1.3c-0.4,0.6-0.9,0.9-1.3,1.2s-1,0.4-1.7,0.4c-0.9,0-1.6-0.3-2.1-0.8s-0.7-1.3-0.7-2.4v-5.3h3.2v4.6
		c0,0.5,0.1,0.9,0.3,1.1s0.5,0.3,0.8,0.3c0.4,0,0.7-0.1,0.9-0.4s0.4-0.8,0.4-1.6v-4h3.2V443.8z"/>
	<path d="M-325.7,441.5l3.2-0.3c0.1,0.4,0.3,0.6,0.5,0.8s0.5,0.2,0.9,0.2c0.4,0,0.8-0.1,1-0.3c0.2-0.1,0.3-0.3,0.3-0.5
		c0-0.2-0.1-0.4-0.4-0.5c-0.2-0.1-0.6-0.2-1.4-0.3c-1.1-0.2-1.9-0.4-2.3-0.5s-0.8-0.4-1.1-0.8c-0.3-0.4-0.4-0.8-0.4-1.3
		c0-0.5,0.2-1,0.5-1.4s0.8-0.7,1.3-0.9c0.6-0.2,1.3-0.3,2.2-0.3c1,0,1.7,0.1,2.2,0.2s0.9,0.4,1.2,0.7s0.6,0.7,0.8,1.3l-3,0.3
		c-0.1-0.3-0.2-0.5-0.4-0.6c-0.2-0.2-0.6-0.2-0.9-0.2c-0.4,0-0.6,0.1-0.8,0.2c-0.2,0.1-0.2,0.3-0.2,0.5c0,0.2,0.1,0.4,0.3,0.5
		c0.2,0.1,0.7,0.2,1.4,0.3c1.1,0.1,1.8,0.3,2.4,0.5c0.5,0.2,0.9,0.5,1.2,0.9s0.4,0.8,0.4,1.3c0,0.5-0.1,0.9-0.4,1.4
		c-0.3,0.5-0.7,0.8-1.4,1.1c-0.6,0.3-1.5,0.4-2.5,0.4c-1.5,0-2.6-0.2-3.2-0.6S-325.6,442.3-325.7,441.5z"/>
	<path d="M-311.6,432.3v3.2h1.8v2.3h-1.8v2.9c0,0.4,0,0.6,0.1,0.7c0.1,0.2,0.3,0.3,0.5,0.3c0.2,0,0.6-0.1,1-0.2l0.2,2.2
		c-0.8,0.2-1.5,0.3-2.2,0.3c-0.8,0-1.4-0.1-1.8-0.3s-0.7-0.5-0.8-0.9c-0.2-0.4-0.3-1.1-0.3-2v-2.9h-1.2v-2.3h1.2v-1.5L-311.6,432.3z
		"/>
	<path d="M-308.1,432.3h5.9c1.3,0,2.2,0.3,2.9,0.9s1,1.5,1,2.6c0,1.2-0.3,2.1-1,2.7s-1.8,1-3.2,1h-1.9v4.2h-3.6V432.3z
		 M-304.6,437.2h0.9c0.7,0,1.2-0.1,1.4-0.4s0.4-0.5,0.4-0.9c0-0.4-0.1-0.7-0.4-0.9s-0.7-0.4-1.4-0.4h-1V437.2z"/>
	<path d="M-288,440.4h-6.4c0.1,0.5,0.2,0.9,0.4,1.1c0.3,0.4,0.7,0.5,1.2,0.5c0.3,0,0.6-0.1,0.9-0.2c0.2-0.1,0.4-0.3,0.6-0.5l3.1,0.3
		c-0.5,0.8-1.1,1.4-1.7,1.8c-0.7,0.4-1.6,0.5-2.9,0.5c-1.1,0-2-0.2-2.6-0.5s-1.2-0.8-1.6-1.5s-0.6-1.5-0.6-2.4
		c0-1.3,0.4-2.3,1.2-3.1s2-1.2,3.4-1.2c1.2,0,2.1,0.2,2.8,0.5s1.2,0.9,1.6,1.6s0.5,1.6,0.5,2.7V440.4z M-291.2,438.9
		c-0.1-0.6-0.2-1.1-0.5-1.3s-0.6-0.4-1.1-0.4c-0.5,0-0.9,0.2-1.2,0.6c-0.2,0.2-0.3,0.6-0.4,1.1H-291.2z"/>
	<path d="M-286.5,435.5h3v1.4c0.4-0.6,0.9-0.9,1.3-1.2s1-0.4,1.7-0.4c0.9,0,1.6,0.3,2.1,0.8s0.7,1.3,0.7,2.4v5.3h-3.2v-4.6
		c0-0.5-0.1-0.9-0.3-1.1s-0.5-0.3-0.8-0.3c-0.4,0-0.7,0.1-0.9,0.4s-0.4,0.8-0.4,1.6v4h-3.2V435.5z"/>
	<path d="M-270.1,435.5h3v7.8l0,0.4c0,0.5-0.1,1-0.3,1.5c-0.2,0.5-0.5,0.9-0.9,1.1c-0.4,0.3-0.8,0.5-1.4,0.6
		c-0.6,0.1-1.2,0.2-1.9,0.2c-1.7,0-2.8-0.2-3.4-0.8s-0.9-1.2-0.9-2c0-0.1,0-0.2,0-0.4l3.1,0.4c0.1,0.3,0.2,0.5,0.4,0.6
		c0.2,0.2,0.5,0.2,0.9,0.2c0.5,0,0.8-0.1,1-0.4c0.2-0.2,0.3-0.7,0.3-1.3v-1.3c-0.3,0.4-0.6,0.6-0.9,0.8c-0.5,0.3-1,0.4-1.6,0.4
		c-1.1,0-2-0.5-2.7-1.5c-0.5-0.7-0.7-1.6-0.7-2.7c0-1.3,0.3-2.3,0.9-3s1.4-1,2.5-1c0.6,0,1.2,0.1,1.6,0.3s0.8,0.6,1.2,1.1V435.5z
		 M-273,439.5c0,0.6,0.1,1,0.4,1.3s0.6,0.4,1,0.4c0.4,0,0.7-0.1,1-0.4s0.4-0.8,0.4-1.4s-0.1-1.1-0.4-1.4s-0.6-0.5-1-0.5
		s-0.7,0.1-1,0.4S-273,438.8-273,439.5z"/>
	<path d="M-256.4,443.8h-3v-1.3c-0.4,0.6-0.9,0.9-1.3,1.2s-1,0.4-1.7,0.4c-0.9,0-1.6-0.3-2.1-0.8s-0.7-1.3-0.7-2.4v-5.3h3.2v4.6
		c0,0.5,0.1,0.9,0.3,1.1s0.5,0.3,0.8,0.3c0.4,0,0.7-0.1,0.9-0.4s0.4-0.8,0.4-1.6v-4h3.2V443.8z"/>
	<path d="M-254.4,432.3h3.2v2.2h-3.2V432.3z M-254.4,435.5h3.2v8.3h-3.2V435.5z"/>
	<path d="M-249.2,435.5h3v1.4c0.4-0.6,0.9-0.9,1.3-1.2s1-0.4,1.7-0.4c0.9,0,1.6,0.3,2.1,0.8s0.7,1.3,0.7,2.4v5.3h-3.2v-4.6
		c0-0.5-0.1-0.9-0.3-1.1s-0.5-0.3-0.8-0.3c-0.4,0-0.7,0.1-0.9,0.4s-0.4,0.8-0.4,1.6v4h-3.2V435.5z"/>
	<path d="M-369.7,463v-0.9l1.1-1.1c2.7-2.5,3.9-3.9,3.9-5.4c0-1.1-0.5-2-2.1-2c-0.9,0-1.7,0.5-2.2,0.9l-0.4-1
		c0.7-0.6,1.7-1.1,2.9-1.1c2.2,0,3.2,1.5,3.2,3c0,1.9-1.4,3.5-3.6,5.6l-0.8,0.8v0h4.7v1.2H-369.7z"/>
	<path d="M-354.6,457.6c0,3.5-1.3,5.5-3.6,5.5c-2,0-3.4-1.9-3.4-5.3c0-3.5,1.5-5.4,3.6-5.4C-355.9,452.4-354.6,454.3-354.6,457.6z
		 M-360.3,457.8c0,2.7,0.8,4.2,2.1,4.2c1.4,0,2.1-1.7,2.1-4.3c0-2.6-0.7-4.2-2.1-4.2C-359.4,453.5-360.3,455-360.3,457.8z"/>
	<path d="M-350.3,453.9L-350.3,453.9l-1.8,1l-0.3-1.1l2.3-1.2h1.2V463h-1.4V453.9z"/>
	<path d="M-338.4,452.6v0.9l-4.5,9.5h-1.5l4.5-9.2v0h-5.1v-1.2H-338.4z"/>
	<path d="M-333.2,461.3c0.6,0.4,1.5,0.7,2.5,0.7c1.4,0,2.3-0.8,2.3-1.8c0-1-0.6-1.6-2-2.1c-1.8-0.6-2.8-1.5-2.8-3.1
		c0-1.7,1.4-2.9,3.5-2.9c1.1,0,1.9,0.3,2.4,0.5l-0.4,1.1c-0.4-0.2-1.1-0.5-2-0.5c-1.5,0-2,0.9-2,1.6c0,1,0.7,1.5,2.1,2.1
		c1.8,0.7,2.8,1.6,2.8,3.2c0,1.7-1.2,3.1-3.8,3.1c-1,0-2.2-0.3-2.8-0.7L-333.2,461.3z"/>
	<path d="M-324.3,459.3c0,1.9,1.2,2.7,2.7,2.7c1,0,1.6-0.2,2.1-0.4l0.2,1c-0.5,0.2-1.3,0.5-2.6,0.5c-2.4,0-3.8-1.6-3.8-3.9
		s1.4-4.2,3.6-4.2c2.5,0,3.2,2.2,3.2,3.6c0,0.3,0,0.5,0,0.7H-324.3z M-320.2,458.3c0-0.9-0.4-2.3-2-2.3c-1.4,0-2,1.3-2.2,2.3H-320.2
		z"/>
	<path d="M-312.8,463l-0.1-1h0c-0.4,0.6-1.3,1.2-2.4,1.2c-1.6,0-2.4-1.1-2.4-2.2c0-1.9,1.7-2.9,4.7-2.9v-0.2c0-0.6-0.2-1.8-1.8-1.8
		c-0.7,0-1.5,0.2-2,0.6l-0.3-0.9c0.6-0.4,1.6-0.7,2.5-0.7c2.4,0,2.9,1.6,2.9,3.2v2.9c0,0.7,0,1.3,0.1,1.9H-312.8z M-313,459
		c-1.5,0-3.3,0.2-3.3,1.7c0,0.9,0.6,1.3,1.3,1.3c1,0,1.6-0.6,1.9-1.3c0-0.1,0.1-0.3,0.1-0.4V459z"/>
	<path d="M-309.5,461.5c0.4,0.3,1.2,0.6,1.9,0.6c1,0,1.5-0.5,1.5-1.2c0-0.7-0.4-1-1.4-1.4c-1.4-0.5-2-1.3-2-2.2c0-1.2,1-2.3,2.7-2.3
		c0.8,0,1.5,0.2,1.9,0.5l-0.4,1c-0.3-0.2-0.9-0.4-1.6-0.4c-0.8,0-1.3,0.5-1.3,1.1c0,0.6,0.5,0.9,1.5,1.3c1.3,0.5,2,1.2,2,2.3
		c0,1.4-1.1,2.3-2.9,2.3c-0.8,0-1.6-0.2-2.2-0.5L-309.5,461.5z"/>
	<path d="M-296,459c0,2.9-2,4.1-3.9,4.1c-2.1,0-3.7-1.5-3.7-4c0-2.6,1.7-4.1,3.8-4.1C-297.5,455-296,456.7-296,459z M-302.1,459.1
		c0,1.7,1,3,2.4,3c1.3,0,2.4-1.3,2.4-3c0-1.3-0.7-3-2.3-3C-301.4,456.1-302.1,457.6-302.1,459.1z"/>
	<path d="M-294.2,457.3c0-0.8,0-1.5-0.1-2.1h1.2l0.1,1.3h0c0.4-0.7,1.3-1.5,2.6-1.5c1.1,0,2.7,0.6,2.7,3.3v4.6h-1.4v-4.5
		c0-1.2-0.5-2.3-1.8-2.3c-0.9,0-1.6,0.7-1.9,1.4c-0.1,0.2-0.1,0.4-0.1,0.7v4.7h-1.4V457.3z"/>
</g>
</svg>
